<?xml version="1.0" encoding="utf-8"?>
<!-- Generator: Adobe Illustrator 28.0.0, SVG Export Plug-In . SVG Version: 6.00 Build 0)  -->
<svg version="1.1" id="Layer_1" xmlns="http://www.w3.org/2000/svg" xmlns:xlink="http://www.w3.org/1999/xlink" x="0px" y="0px"
	 viewBox="0 0 595.3 841.9" style="enable-background:new 0 0 595.3 841.9;" xml:space="preserve">
<style type="text/css">
	.st0{display:none;}
	.st1{display:inline;fill:#B7BCBC;}
	.st2{display:inline;fill:#DEE7E9;}
	.st3{display:inline;fill:#CDD3D5;}
	.st4{display:inline;fill:#F8FAFB;}
	.st5{fill:#F8FAFB;stroke:#000000;stroke-miterlimit:10;}
	.st6{fill:#0F191A;stroke:#000000;stroke-miterlimit:10;}
</style>
<g>
	<g id="Background_00000115476977511022912460000005807868907294612405_" class="st0">
		<path class="st1" d="M417.7,235.4c-0.2,120.5-0.2,120.5-0.4,241.1c-133.6-0.1-133.6-0.1-267.2-0.2c-0.1-3-0.1-3-0.1-5.9
			c0-117.4,0-117.4,0-234.9C283.9,235.4,283.9,235.4,417.7,235.4z"/>
		<path class="st2" d="M417.7,235.4c0.3,0,0.3,0,0.5,0c0,121,0,121,0,242c-134.5,0-134.5,0-269,0c0-2.2,0-2.2,0-4.5
			c0.8-0.7-0.4-2.6,0.8-2.6c0.1,3,0.1,3,0.1,5.9c133.6,0.1,133.6,0.1,267.2,0.2C417.5,355.9,417.5,355.9,417.7,235.4z"/>
		<path class="st3" d="M150,235.4c0,117.4,0,117.4,0,234.9c-1.2,0,0,1.9-0.8,2.6c0-118.8,0-118.8,0-237.5
			C149.5,235.4,149.8,235.4,150,235.4z"/>
		<path class="st4" d="M248.7,375.1c8.8,0,8.8,0,17.6,0c1.6,2.3,1.6,2.3,3.3,4.6c-10.4,0.1-10.4,0.1-20.9,0.1
			C248.7,377.4,248.7,377.4,248.7,375.1z"/>
	</g>
	<g>
		<path class="st5" d="M342.3,405.1c0,0.8,0.2,5.2-0.1,5.4c-13.4-5.5-17.7-9-25.5-20.1c-12,0-12,0-23.9,0
			c-2.5,2.7-15.1,1.1-19.7,0.2c-11.6,0-11.6,0-23.1,0c-6.3,10.6-12.7,14.5-24.4,19.6c-0.3-0.2-0.1-4.7-0.1-5.4
			c13-6.5,14.6-8.3,21.9-19.9c3-0.5,23.7,0.6,24.7,0c0.3-0.2,0-1.1,0.1-1.3c0.5-0.8,6,3.8,13.8,3c2.2-0.2,8.5-3.2,8.9-3.1
			c0.2,0.1,0.8,1.3,1.3,1.4c1.2,0.4,20.1-0.3,23.9,0C327.7,395.8,329.4,398.8,342.3,405.1z"/>
		<path class="st5" d="M224.5,405.3c0.1,4.8,0.1,4.8,0.1,9.6c-3.2,0.2-3.2,0.2-6.4,0.4C216.2,408.1,219.8,409.4,224.5,405.3z"/>
		<path class="st5" d="M343,405.6c4.9,4,7.1,3.2,6,9.7c-3.1-0.1-3.1-0.1-6.2-0.1C342.9,410.3,342.9,410.3,343,405.6z"/>
		<g>
			<path class="st5" d="M342.9,390.9c0,0,0-0.5-0.8-0.1c-0.1,3.5-0.1,3.5-0.3,7.1c-0.9,0.8-11.5-8.5-11.3-9.2
				c0.1-0.4,1.5-0.5,1.6-0.7c0.2-0.8-8.9-6.8-9.9-12.9c2.3,0.2,2.3,0.2,4.6,0.4c0.2,7,5.3,8.7,9.3,14.1c-1-2.1-1-2.1-2-4.1
				c0.2-0.2,0.2-0.2,0.4-0.4c11.1-0.1,11.1-0.1,22.2-0.1c0-28.5,0-28.5,0-57c-8.4-4.7-11.4-9.3-15.1-17.4c-7.8,2.6-2.6,3.4-4.2,5.2
				c-18.7,9.8-36.2,16.2-46.4,34.6c14.8-17.1,27.2-22.4,48.2-31.8c2.2,2.2,3.7,5,5.9,7.2c2.6,2.6,9.4,5.8,5.9,8.1
				c-1.1,0.7-21.7,6.2-25.2,7.3c-8.7,2.8-20.9,6.8-28.9,10.6c-4.7,2.2-8.8,5.3-13.4,7.6c-19.9-13.1-44.3-19-67.5-25.5
				c-2.2-4.2,2.5-4.2,7.2-9.3c2.2-2.4,3.8-6,4.9-6c20.5,9,33.2,14.9,48.2,31.1c-6.2-10.7-16-18.1-27.2-24.5
				c-2.8-1.6-18.9-8.8-19.4-9.7c-0.9-1.6,3.9-3.3-4.3-5.1c-2.4,7.5-7.5,13-14.7,17.2c0,28.6,0,28.6,0,57.2
				c10.7,0.2,10.7,0.2,21.4,0.4c-0.6,1.5-3.5,4.3-2.6,4.5c1.9-2.6,6.8-5.6,8.5-7.7c3.7-4.4,2.2-8.6,8.4-6.6
				c-4.1,7.6-10.9,10.8-10.8,11.6c0,0.4,2.6,0.9,2.6,1.2c0.1,0.5-7.7,7-8.8,7.7c-7.5,5-2.2,0.1-3.8-5.1c-0.4-0.7-0.8-0.1-0.8-0.1
				c-5.7-1.4-19.1,2-20.2-2.7c-0.8-3.1,0.6-54.5,0-63.3c1.5-3,6-2.4,10.5-7.6c3.7-4.2,4.3-8.8,5.5-10.6c4.3-6.7,14.9,0.3,15.4,6.3
				c7.8-7.3,14.8-19,28.1-16.3c9,1.8,17,13.4,19.7,20.8c2.6-9.4,12.5-21.8,24.4-21.3c10,0.5,17.7,11,23.9,17
				c-0.3-4.5,7.6-11.3,12.4-8.7c2.2,1.2,3.5,11.2,10.8,16.1c1.2,0.8,6.9,3.1,7.2,4.1c-0.5,9.2,0.7,60.5,0,63.6
				C361.5,392.8,348.8,389.6,342.9,390.9z"/>
			<path class="st6" d="M258.4,302c6.3-0.8,11.5,3.6,15.1,7.7c10.3,11.8,9.3,24,9.5,38.3c-2.4-7-2.8-14.5-5.5-21.5
				c-2.1-5.3-10.8-20.4-18.3-19.5c-2.5,0.3-9.5,7-11.7,8.9c13.9,8.2,29,18.2,32.7,33.7c-8.7-16.5-22.9-26.2-39.8-35.3
				C245.5,311.7,253.2,302.7,258.4,302z"/>
			<path class="st6" d="M305.4,302c9-1,14.8,8.2,21.7,12.4c-14.4,7.4-26,15.1-34.9,27.9c-2,2.8-6.2,10.9-2.9,2.6
				c5.2-13,18.4-22.2,31.3-28.8c-7.4-5.5-10.9-12.1-18-7.4c-12,7.8-14.9,27.9-17.3,39.9c-0.2-12.6-1.4-24.3,6.2-35.6
				C294,309.1,300.1,302.6,305.4,302z"/>
			<path class="st6" d="M228.2,328c1.3-0.4,22.8,7.9,25.5,9.2c7,3.4,13.2,8.1,18.8,13.1c-8.8-5.4-17.7-10.4-27.4-14.3
				c-3.8-1.5-16.9-5.4-17.3-6.1C227.4,329.6,227.8,328.2,228.2,328z"/>
			<path class="st6" d="M339,328.3c0.2,0,1.7,1.7,0.8,1.9c-16,5-31.5,11.4-45,20.7c5.2-5,11.3-9.5,18-12.9
				C315.9,336.4,337.6,328,339,328.3z"/>
		</g>
		<g>
			<path class="st6" d="M342.9,390.9c0.1,4.7-0.3,9.5-0.5,14.2c-12.9-6.3-14.7-9.2-22.2-20.1c-3.8-0.3-22.7,0.4-23.9,0
				c-0.5-0.1-1.1-1.4-1.3-1.4c-0.5-0.1-6.7,2.8-8.9,3.1c-7.8,0.8-13.3-3.7-13.8-3c-0.1,0.2,0.2,1.1-0.1,1.3c-1,0.6-21.7-0.5-24.7,0
				c-7.4,11.5-8.9,13.3-21.9,19.9c0,0-0.5,0.1-0.5-0.1c-0.2-4.6,0.3-9.4,0-14.1c0,0,0.4-0.5,0.8,0.1c1.6,5.1-3.7,10,3.8,5.1
				c1.1-0.7,8.9-7.1,8.8-7.7c-0.1-0.2-2.6-0.8-2.6-1.2c-0.1-0.8,6.7-4,10.8-11.6c-6.2-2-4.7,2.2-8.4,6.6c-1.7,2.1-6.6,5-8.5,7.7
				c-0.8-0.2,2-3,2.6-4.5c-10.7-0.2-10.7-0.2-21.4-0.4c0-28.6,0-28.6,0-57.2c7.2-4.2,12.3-9.7,14.7-17.2c8.2,1.8,3.5,3.5,4.3,5.1
				c0.5,0.9,16.6,8.1,19.4,9.7c11.2,6.4,21,13.7,27.2,24.5c-15-16.1-27.7-22-48.2-31.1c-1.1,0-2.6,3.6-4.9,6
				c-4.7,5.1-9.4,5.2-7.2,9.3c23.2,6.5,47.6,12.4,67.5,25.5c4.6-2.3,8.7-5.3,13.4-7.6c8-3.8,20.2-7.8,28.9-10.6
				c3.5-1.1,24.2-6.6,25.2-7.3c3.5-2.4-3.3-5.5-5.9-8.1c-2.2-2.2-3.7-5-5.9-7.2c-21,9.4-33.4,14.6-48.2,31.8
				c10.1-18.4,27.6-24.9,46.4-34.6c1.6-1.8-3.6-2.6,4.2-5.2c3.7,8,6.7,12.7,15.1,17.4c0,28.5,0,28.5,0,57
				c-11.1,0.1-11.1,0.1-22.2,0.1c-0.2,0.2-0.2,0.2-0.4,0.4c1,2.1,1,2.1,2,4.1c-4-5.3-9.1-7.1-9.3-14.1c-2.3-0.2-2.3-0.2-4.6-0.4
				c1,6.1,10.1,12.1,9.9,12.9c-0.1,0.2-1.5,0.3-1.6,0.7c-0.2,0.7,10.4,10,11.3,9.2c0.1-3.5,0.1-3.5,0.3-7.1
				C342.9,390.4,342.8,390.9,342.9,390.9z"/>
			<g>
				<path class="st5" d="M350.9,347.9c0,2.1,0,2.1,0,4.2c-13.9,1.8-27,6-40.1,10.5c0.1,0.5,9.3-1,10.1-1.1
					c4.2-0.2,25.3,0.6,28.6,1.2c2.4,0.4,1.5,3,1.3,3.1c-0.8,0.5-13-1.2-18.6-1.4c-7.9-0.3-15.9,0-23.8,0.8
					c5.3,0.5,10.6,0.4,15.9,0.8c3.2,0.2,24.2,2.1,25.5,2.4c1.9,0.4,1.2,2.5,1,2.6c-0.8,0.5-17.7-0.9-20.2-1
					c-11.2-0.2-22.4,0.2-33.6,0c-4,14.5-22,15.2-26.3,0c-11,0.2-22.1-0.2-33.1,0c-2.6,0.1-20.8,1.6-21.4,0.8
					c-0.1-0.1-0.2-2.3,0.4-2.5c14.2-0.9,28.4-2.5,42.7-3c-14.2-2-28.5-0.7-42.7,0.4c-1.2-3.3-0.3-3,2.6-3.3
					c10.1-1.2,27.5-1.1,38-0.1c-13.3-4.3-26.7-8.8-40.9-10.3c0-2,0-2,0-4c15.2,3.9,34.8,8.8,48.6,15.6c12.9,6.4,10.8,10.8,15.2,12.8
					c8.7,3.7,11.7-5.2,13.3-7C300.6,361.6,338.7,351.2,350.9,347.9z"/>
				<path class="st5" d="M216.1,339.1c23.1,7.1,49.3,12.5,67.8,27.6c18.5-15.3,44.4-20.3,67.4-27.5c0,2,0,2,0,4
					c-14.5,4.2-50.2,13.3-60.8,21.6c-4.6,3.7-4.8,7.6-7.1,7.1c-0.4-0.1-4.2-5.2-5.2-6.1c-10.6-9.5-46.7-18.7-62-22.2
					C216.1,341.4,216.1,341.4,216.1,339.1z"/>
				<path class="st5" d="M216.6,375.1c11.6,0,11.6,0,23.1,0c0.5,0.3-2.4,4.1-2.9,4.7c-10.2,0-10.2,0-20.5,0
					C216.5,377.4,216.5,377.4,216.6,375.1z"/>
				<path class="st5" d="M328.8,375.1c11.2,0,11.2,0,22.3,0c0.2,2.2,0.2,2.2,0.4,4.4c-10.6,0.2-10.6,0.2-21.1,0.4
					c-1-2.2-1-2.2-2-4.4C328.6,375.2,328.6,375.2,328.8,375.1z"/>
				<path class="st5" d="M301.5,375.1c9.3,0,9.3,0,18.6,0c0.3,0.2-0.9,4-1,4.7c-10.4,0-10.4,0-20.8,0
					C299.9,377.4,299.9,377.4,301.5,375.1z"/>
				<path class="st5" d="M349.8,355.2c0.3,0,1.3-0.1,1.4,0.1c-0.2,2.3-0.2,2.3-0.4,4.6c-11.6-0.2-11.6-0.2-23.2-0.4
					C331.8,358.6,347.5,355.3,349.8,355.2z"/>
				<path class="st5" d="M216.4,355.2c12.1,2.2,12.1,2.2,24.3,4.4c-12.1,0.2-12.1,0.2-24.3,0.4C216.4,357.6,216.4,357.6,216.4,355.2
					z"/>
			</g>
		</g>
	</g>
</g>
</svg>
